<?xml version="1.0" encoding="UTF-8" standalone="no"?>
<svg
   xmlns:osb="http://www.openswatchbook.org/uri/2009/osb"
   xmlns:dc="http://purl.org/dc/elements/1.1/"
   xmlns:cc="http://creativecommons.org/ns#"
   xmlns:rdf="http://www.w3.org/1999/02/22-rdf-syntax-ns#"
   xmlns:svg="http://www.w3.org/2000/svg"
   xmlns="http://www.w3.org/2000/svg"
   xmlns:sodipodi="http://sodipodi.sourceforge.net/DTD/sodipodi-0.dtd"
   xmlns:inkscape="http://www.inkscape.org/namespaces/inkscape"
   width="300"
   height="50.052792"
   version="1.2"
   id="svg2"
   inkscape:version="0.92.2 5c3e80d, 2017-08-06"
   sodipodi:docname="BBC_iPlayer_logo.svg">
  <metadata
     id="metadata68">
    <rdf:RDF>
      <cc:Work
         rdf:about="">
        <dc:format>image/svg+xml</dc:format>
        <dc:type
           rdf:resource="http://purl.org/dc/dcmitype/StillImage" />
        <dc:title></dc:title>
      </cc:Work>
    </rdf:RDF>
  </metadata>
  <sodipodi:namedview
     pagecolor="#0c101c"
     bordercolor="#666666"
     borderopacity="1"
     objecttolerance="10"
     gridtolerance="10"
     guidetolerance="10"
     inkscape:pageopacity="0"
     inkscape:pageshadow="2"
     inkscape:window-width="1030"
     inkscape:window-height="1006"
     id="namedview66"
     showgrid="false"
     fit-margin-top="0"
     fit-margin-left="0"
     fit-margin-right="0"
     fit-margin-bottom="0"
     inkscape:zoom="2.9533333"
     inkscape:cx="89.390519"
     inkscape:cy="25.026396"
     inkscape:window-x="247"
     inkscape:window-y="16"
     inkscape:window-maximized="0"
     inkscape:current-layer="svg2">
    <inkscape:grid
       type="xygrid"
       id="grid3082"
       empspacing="5"
       visible="true"
       enabled="true"
       snapvisiblegridlinesonly="true"
       originx="-392"
       originy="-437.3056"
       spacingx="1"
       spacingy="1" />
  </sodipodi:namedview>
  <desc
     id="desc4">Created by HiQPdf</desc>
  <defs
     id="defs6">
    <linearGradient
       id="linearGradient4615"
       osb:paint="solid">
      <stop
         style="stop-color:#fa0000;stop-opacity:1;"
         offset="0"
         id="stop4613" />
    </linearGradient>
  </defs>
  <path
     inkscape:connector-curvature="0"
     d="m 70.03726,23.809793 c 0,4.003816 -4.98141,3.765534 -4.98141,3.765534 H 60.07461 V 20.34034 h 4.98124 c 5.13069,-0.02908 4.98141,3.469453 4.98141,3.469453 M 60.07461,9.310562 h 3.7955 c 3.94353,0.207788 3.7946,3.142524 3.7946,3.142524 0,3.647637 -4.35786,3.70703 -4.35786,3.70703 H 60.07461 V 9.310562 z m 9.04391,8.272687 c 0,0 3.40971,-1.452566 3.38063,-5.307631 0,0 0.51769,-6.315546 -7.8509,-7.086419 H 55.3602 v 26.47859 h 10.64505 c 0,0 8.89534,0.02961 8.89534,-7.47256 0,-1.78e-4 0.20743,-5.100023 -5.78207,-6.61198 M 45.08499,0 H 84.18083 V 36.842273 H 45.08499 V 0 z M 24.95244,23.809793 c 0,4.003816 -4.98123,3.765534 -4.98123,3.765534 H 14.98962 V 20.34034 h 4.98159 c 5.12963,-0.02908 4.98123,3.469453 4.98123,3.469453 M 14.98962,9.310562 h 3.7955 c 3.94353,0.207788 3.79532,3.142524 3.79532,3.142524 0,3.647637 -4.35858,3.70703 -4.35858,3.70703 H 14.9898 V 9.310562 z m 9.04409,8.272687 c 0,0 3.40953,-1.452566 3.3801,-5.307631 0,0 0.51876,-6.315546 -7.8502,-7.086419 h -9.28857 v 26.47859 h 10.64522 c 0,0 8.89516,0.02961 8.89516,-7.47256 1.8e-4,-1.78e-4 0.20726,-5.100023 -5.78171,-6.61198 M 0,0 H 39.0962 V 36.842273 H 0 V 0 z m 121.28975,7.086946 v 4.892417 c 0,0 -4.77433,-2.935269 -10.05236,-2.995022 0,0 -9.84333,-0.19165 -10.28816,9.437327 0,0 -0.35565,8.858288 10.17009,9.36251 0,0 4.41815,0.533299 10.40818,-3.291806 v 5.071122 c 0,0 -8.03618,4.773092 -17.34674,1.096382 0,0 -7.82839,-2.859919 -8.12429,-12.238208 0,0 -0.32622,-9.644225 10.11104,-12.846679 0,0 2.78758,-1.067301 7.7979,-0.593045 1.8e-4,-1.79e-4 2.99519,0.296434 7.32434,2.105002 M 90.16962,36.842273 h 39.09656 V 0 H 90.16962 v 36.842273 z"
     id="path3068"
     style="fill:#fafdff;fill-opacity:1;fill-rule:evenodd" />
  <g
     id="g4"
     style="fill:#f54997;fill-opacity:1"
     transform="matrix(1.393981,0,0,1.393981,145.26811,0.008875)">
    <path
       d="M 78.3,10.4 79.7,6.9 H 73 L 69,19.8 H 68.9 L 64.6,6.9 h -7.3 l 1,2.4 H 58.2 C 56.5,7.2 53.7,6.4 50.6,6.4 c -2.9,0 -4.4,0.4 -6.9,1.1 0,0 -1.5,4.6 -1.6,4.8 -0.1,0.2 0.1,0.5 0.4,0.3 1.7,-0.8 3.9,-1.7 6.7,-1.7 2.4,0 4.4,0.7 4.5,3.4 -0.9,-0.2 -2.1,-0.3 -3.1,-0.3 -2.9,0 -7.5,0.5 -9.3,3.7 H 41.2 V 0 H 34.5 V 6.3 H 34.4 C 33.1,2.2 29.4,0 22.8,0 h -8.4 v 7.1 l 2.9,5.5 c 0.4,0.4 0.5,0.9 0,1.4 l -2.9,5.6 v 7.1 h 7 v -8.5 h 2.7 c 5.4,0 9,-2.5 10.1,-6.4 h 0.1 V 26.7 H 41 v -2.8 h 0.1 c 1.2,2.2 3.8,3.1 6.6,3.2 3.4,0.1 5.3,-1.6 6,-2.1 0.2,-0.1 0.3,-0.2 0.3,0 0,0.6 0.1,1.2 0.1,1.6 h 6.2 C 60,25 59.9,23.5 59.9,21.9 v -7.4 c 0,-0.4 0,-0.8 -0.1,-1.2 h 0.1 L 65.3,27 c 0,0 -0.9,3.1 -3.7,3.1 -1.2,0 -1.9,-0.2 -2.9,-0.7 -0.2,-0.1 -0.3,0 -0.4,0.2 l -1.6,5 c 1,0.5 3.4,1.3 6,1.3 5.7,0 8.2,-6.3 9.9,-10.7 l 4.1,-10.5 h 0.1 c -0.1,0.6 -0.1,1.2 -0.1,1.9 0,6.5 4.9,10.4 11.4,10.4 2,0 4.1,-0.4 5.8,-1 0,0 1.4,-4.1 1.7,-5 0.1,-0.3 -0.2,-0.5 -0.4,-0.3 -1.7,0.9 -3.6,1.8 -5.8,1.8 -3.3,0 -5.4,-1.1 -5.7,-3.8 h 13.1 v 7.9 h 6.7 v -8.4 c 0,-4.3 2.3,-6.2 4.9,-6.2 0.6,0 1.1,0.2 1.1,0.2 L 111,7 c 0,-0.2 0,-0.3 -0.2,-0.4 -0.6,-0.1 -1.3,-0.2 -2,-0.2 -2.9,0 -5,1.6 -6.2,4.1 h -0.1 V 6.9 h -6.1 v 6.5 H 96.3 C 95.2,9.4 92.4,6.5 87,6.5 c -3.7,0 -6.8,1.4 -8.7,3.9 z m -55.1,2.7 h -1.8 v -8 h 1.8 c 2.4,0 4.3,1.3 4.3,4 0,2.8 -1.9,4 -4.3,4 m 26.2,9.5 c -1.6,0 -2.8,-0.8 -2.8,-2.2 0,-1.9 1.8,-2.6 4.1,-2.6 1,0 2,0.1 2.8,0.1 0.1,2.3 -1.5,4.7 -4.1,4.7 m 33.8,-7.7 c 0.1,-2.3 1.3,-4.1 3.7,-4.1 2.7,0 3.7,1.9 3.7,4.1 h -7.4 z"
       id="path6"
       inkscape:connector-curvature="0"
       style="fill:#f54997;fill-opacity:1" />
    <path
       d="M 6.6,0 H 0 V 6.7 H 6.6 V 3.9 L 17.3,13.3 6.6,22.8 V 10 H 0 V 26.7 H 6.6 L 21.4,13.3"
       id="path8"
       inkscape:connector-curvature="0"
       style="fill:#f54997;fill-opacity:1" />
  </g>
  <rect
     style="fill:#ffffff;fill-opacity:0"
     id="rect4607"
     width="133.40858"
     height="60.270882"
     x="2.0316026"
     y="-5.8162827" />
</svg>
